# xmcd
#
# Track frame offsets:
#	150
#	19025
#	35727
#	54630
#	71565
#	90072
#	113380
#	128787
#	141892
#	159750
#
# Disc length: 2379 seconds
#
# Revision: 5
# Processed by: cddbd v1.5.2PL0 Copyright (c) Steve Scherf et al.
# Submitted via: audiograbber 1.83.01
#
DISCID=7409490a
DTITLE=Kenny Rogers - Greatest Hits
DYEAR=1988
DGENRE=Country
TTITLE0=Islands In The Stream (Duet with Dolly Parton)
TTITLE1=Crazy
TTITLE2=Buried Treasure
TTITLE3=Twenty Years Ago
TTITLE4=I Don't Call Him Daddy
TTITLE5=I Prefer The Moonlight
TTITLE6=The Factory
TTITLE7=She's Ready For Someone To Love Her
TTITLE8=Make No Mistake, She's Mine (Duet with Ronnie Milsap)
TTITLE9=Morning Desire
EXTD=YEAR: 1988
EXTT0=
EXTT1=
EXTT2=
EXTT3=
EXTT4=
EXTT5=
EXTT6=
EXTT7=
EXTT8=
EXTT9=
PLAYORDER=
